<svg width="28" height="28" viewBox="0 0 28 28" fill="none" xmlns="http://www.w3.org/2000/svg">
<circle cx="14" cy="14" r="13.5" stroke="white"/>
<path d="M27.3129 13.8173C27.3129 14.0762 27.2899 14.3287 27.2743 14.5844C27.1793 14.3444 27.0352 14.0313 27.0008 13.8967C26.9507 13.6921 26.6449 12.9793 26.6449 12.9793C26.6449 12.9793 26.3391 12.5722 26.1356 12.47C25.9331 12.3677 25.7797 12.113 25.4228 11.9105C25.0658 11.706 24.9145 11.6047 24.6097 11.6047C24.3029 11.6047 23.9992 11.1967 23.6412 10.9931C23.2843 10.7907 23.2342 10.8919 23.2342 10.8919C23.2342 10.8919 23.6412 11.5025 23.6412 11.6548C23.6412 11.8072 24.0983 12.0619 24.5586 11.9596C24.5586 11.9596 24.8633 12.52 25.0157 12.6724C25.1681 12.8248 24.9646 12.9782 24.6598 13.1817C24.354 13.3842 24.4052 13.3341 24.2507 13.4865C24.0983 13.6389 23.5901 13.8956 23.4366 13.9958C23.2843 14.097 22.6737 14.4028 22.369 14.097C22.2197 13.9499 22.2656 13.6399 22.1654 13.4354C22.0632 13.2318 20.9944 11.6538 20.4851 10.942C20.3964 10.8168 20.1793 10.4306 20.028 10.3315C19.8756 10.2281 20.3849 10.2281 20.3849 10.2281C20.3849 10.2281 20.3849 9.87119 20.3338 9.61757C20.2816 9.36292 20.3849 9.00702 20.3849 9.00702C20.3849 9.00702 19.8756 9.31177 19.7211 9.41406C19.5698 9.51634 19.4164 9.21158 19.2139 8.95588C19.0104 8.70227 18.8058 8.39542 18.7557 8.14077C18.7046 7.88715 19.0104 7.78487 19.0104 7.78487L19.4675 7.53126C19.4675 7.53126 20.028 7.43002 20.3849 7.48012C20.7408 7.53126 21.3002 7.5824 21.3002 7.5824C21.3002 7.5824 21.4526 7.22546 21.2491 7.07308C21.0466 6.9207 20.5863 6.66605 20.3828 6.71719C20.1804 6.76728 20.4841 6.46253 20.7377 6.25901L20.1741 6.15673C20.1741 6.15673 19.6616 6.41139 19.5082 6.46253C19.3559 6.51262 19.0908 6.61491 18.8862 6.86956C18.6837 7.12422 18.9676 7.48012 18.7641 7.5824C18.5616 7.68468 18.4238 7.73477 18.2704 7.78487C18.118 7.83601 17.6338 7.78487 17.6338 7.78487C17.1078 7.78487 17.4449 8.26496 17.5816 8.43508L17.1746 7.93829L16.8729 7.2265C16.8729 7.2265 16.4388 6.92175 16.2352 6.82051C16.0317 6.71823 15.4045 6.36234 15.4045 6.36234L15.4483 6.82051L16.038 7.4175L16.0902 7.43106L16.397 7.8381L15.7197 7.88924V7.48638C15.0809 7.33191 15.2479 7.17327 15.1759 7.12422C15.0246 7.02298 14.6708 6.76728 14.6708 6.76728C14.6708 6.76728 14.0717 6.86956 13.9183 6.9207C13.7649 6.97184 13.7221 7.12422 13.4184 7.22546C13.1115 7.32774 12.9737 7.48012 12.8725 7.63249C12.7713 7.78487 12.4394 8.24305 12.238 8.44656C12.0334 8.65113 11.6556 8.59894 11.5032 8.59894C11.3498 8.59894 10.615 8.39542 10.615 8.39542V7.5323C10.615 7.5323 10.7142 7.04803 10.6641 6.89565L11.1097 6.82051L11.8539 6.66709L12.072 6.51367L12.3851 6.10663C12.3851 6.10663 12.0334 5.85198 12.287 5.49608C12.4091 5.32492 12.8485 5.29256 13.052 5.14019C13.2545 4.98781 13.5624 4.88553 13.5624 4.88553C13.5624 4.88553 13.9193 4.58077 14.2752 4.22383C14.2752 4.22383 14.5299 4.07041 14.8346 3.96813C14.8346 3.96813 15.7009 4.73211 15.8543 4.73211C16.0077 4.73211 16.5671 4.37621 16.5671 4.37621C16.5671 4.37621 16.7195 3.91908 16.6694 3.76566C16.6183 3.61328 16.3636 3.10397 16.3636 3.10397C16.3636 3.10397 16.2112 3.35862 16.0589 3.56214C15.9065 3.76566 15.8042 4.02032 15.8042 4.02032C15.8042 4.02032 15.0914 3.97126 15.0413 3.81889C14.9891 3.66547 14.8889 3.41394 14.8367 3.2626C14.7877 3.10918 14.3796 3.1144 14.0759 3.21668C13.769 3.31896 14.1249 2.66771 14.1249 2.66771C14.1249 2.66771 14.4318 2.28363 14.6342 2.28363C14.8367 2.28363 15.297 2.02271 15.4984 1.97262C15.703 1.92148 16.3156 1.68874 16.5682 1.68874C16.8228 1.68874 17.1286 1.79832 17.2821 1.79832C17.4355 1.79832 18.045 1.79832 18.045 1.79832L19.1127 1.71274C19.1127 1.71274 20.0301 2.05194 19.7232 2.2565C19.7232 2.2565 20.0812 2.47671 20.2336 2.62909C20.3766 2.77312 20.746 2.49654 20.9579 2.37861C24.7663 4.76864 27.3129 8.99658 27.3129 13.8173ZM3.02539 5.85198C3.02539 6.05549 2.74777 6.10455 3.02539 6.61595C3.38024 7.27764 3.07549 7.58344 3.07549 7.58344C3.07549 7.58344 2.20923 8.19399 2.05686 8.29627C1.90448 8.39855 1.49744 8.95797 1.75106 8.80455C2.00571 8.65217 2.31047 8.49979 2.05686 8.90683C1.8022 9.31491 1.34402 9.97556 1.24279 10.2313C1.14155 10.487 0.632232 11.0965 0.632232 11.4023C0.632232 11.7081 0.428715 12.3197 0.479855 12.5743C0.514297 12.7517 0.401579 13.2746 0.312866 13.4896C0.381749 10.6279 1.34507 7.99048 2.93563 5.83319C2.98782 5.83841 3.02539 5.85198 3.02539 5.85198ZM4.66084 3.90029C5.90595 2.7512 7.36501 1.83485 8.97437 1.2149C8.81573 1.41842 8.62369 1.62716 8.62369 1.62716C8.62369 1.62716 8.2678 1.62611 7.60506 2.33999C6.94441 3.05283 7.09679 2.84931 6.94441 3.05178C6.79203 3.25426 6.84213 3.30644 6.48519 3.56214C6.13034 3.81576 5.97692 4.12155 5.97692 4.12155L5.41646 4.32507L4.95933 4.12155C4.95933 4.12155 4.55021 4.27497 4.60135 4.07041C4.61596 4.01614 4.63788 3.95978 4.66084 3.90029ZM10.7622 5.088L10.5597 4.78325L10.7622 4.32507L11.2527 4.52128V3.61224L11.7213 3.35862L12.1106 3.91804L12.7097 4.58077L12.3121 4.88553L11.2517 5.08905V4.54946L10.7622 5.088ZM17.3812 9.87328C17.5002 9.77934 17.8895 10.0257 17.8895 10.0257C17.8895 10.0257 19.1617 10.2803 19.3652 10.4327C19.5698 10.5861 19.9257 10.6884 20.028 10.8418C20.1303 10.9942 20.4851 11.4524 20.5352 11.6047C20.5874 11.7571 20.8421 12.3186 20.8932 12.5211C20.9443 12.7246 21.0967 13.2339 21.2491 13.4886C21.4015 13.7443 22.2677 14.8631 22.5725 15.3724L23.4909 15.22C23.4909 15.22 23.3876 15.6772 23.2863 15.8306C23.1851 15.983 22.8793 16.39 22.7269 16.5935C22.5735 16.797 22.371 17.1028 22.0652 17.3565C21.7605 17.6101 21.7584 17.8647 21.6071 18.0693C21.4547 18.2728 21.2501 18.731 21.2501 18.731C21.2501 18.731 21.3524 19.7496 21.4025 19.9531C21.4526 20.1567 21.0466 20.7161 21.0466 20.7161L20.5874 21.1753L19.9737 21.9883L20.0238 22.7512C20.0238 22.7512 19.5604 23.1092 19.3047 23.3117C19.0521 23.5142 19.0918 23.6676 18.8883 23.8722C18.6858 24.0746 17.8895 24.4316 17.686 24.4827C17.4824 24.5338 16.3594 24.6862 16.3594 24.6862V24.2291L16.3365 23.7198C16.3365 23.7198 16.182 23.1092 16.0286 22.9057C15.8752 22.7022 15.942 22.3953 15.6873 22.1417C15.4327 21.8871 15.3387 21.6846 15.2876 21.5301C15.2364 21.3778 15.3429 20.9206 15.3429 20.9206C15.3429 20.9206 15.5485 20.3602 15.6497 20.1567C15.752 19.9531 15.6508 19.6484 15.5485 19.4438C15.4462 19.2393 15.3972 18.7299 15.3972 18.5786C15.3972 18.4262 14.988 18.1705 14.8357 18.0182C14.6833 17.8658 14.7344 17.6612 14.7344 17.4598C14.7344 17.2542 14.5821 16.797 14.6322 16.4401C14.6833 16.0842 14.175 16.3378 13.8692 16.4401C13.5634 16.5424 13.361 16.3378 13.361 16.032C13.361 15.7262 12.8015 15.9819 12.4446 16.1844C12.0866 16.3879 11.6806 16.3879 11.2715 16.5413C10.8655 16.6937 10.663 16.389 10.663 16.389C10.663 16.389 10.3051 16.0842 10.0525 15.9308C9.79679 15.7784 9.54213 15.4737 9.33757 15.219C9.13509 14.9633 8.62473 14.1993 8.57568 13.8956C8.52454 13.5888 8.57568 13.3842 8.57568 13.0283C8.57568 12.6724 8.57568 12.4689 8.62578 12.2143C8.67692 11.9596 8.82929 11.6538 8.98271 11.3991C9.13509 11.1445 9.69555 10.8397 9.84688 10.7374C9.99926 10.6362 10.3562 10.3315 10.3562 10.1269C10.3562 9.92337 10.5608 9.82213 10.661 9.61757C10.7643 9.41406 11.1202 8.90578 11.5783 9.1093C11.5783 9.1093 11.9843 9.0592 12.1367 9.00806C12.2891 8.95692 12.6961 8.80559 12.8976 8.70331C13.1011 8.60103 13.6083 8.55302 13.6083 8.55302C13.6083 8.55302 14.0091 8.7127 14.1615 8.7127C14.3138 8.7127 14.8106 8.62399 14.8106 8.62399C14.8106 8.62399 15.0402 9.36187 15.0402 9.51529C15.0402 9.66871 15.1926 9.82005 15.4483 9.92233C15.6998 10.0257 16.8719 10.2814 17.3812 9.87328ZM23.2352 19.8519C23.2352 20.0043 23.1841 20.4124 23.1329 20.6159C23.0797 20.8194 22.9795 21.1763 22.9294 21.3778C22.8783 21.5823 22.6236 21.9894 22.4723 22.0916C22.3199 22.1939 22.0642 22.4997 21.9129 22.5498C21.7605 22.601 21.6572 22.1929 21.7083 21.9894C21.7605 21.7858 22.0141 21.2264 22.0141 21.2264C22.0141 21.2264 22.0652 20.9217 22.1153 20.7171C22.1675 20.5146 22.7781 20.26 22.7781 20.26L23.1862 19.496C23.1841 19.495 23.2352 19.7006 23.2352 19.8519ZM0.644757 16.819C0.710508 16.8357 0.80444 16.8837 0.936987 17.0016C1.12902 17.1686 1.24278 17.2542 1.49744 17.3575C1.75106 17.4608 1.85334 17.6111 2.15914 17.7645C2.46493 17.918 2.3637 17.8167 2.76969 18.2739C3.17777 18.731 3.12663 18.731 3.22786 18.9867C3.3291 19.2424 3.48252 19.495 3.5848 19.6494C3.68708 19.8018 3.99184 19.903 4.14422 20.0053C4.29659 20.1076 4.55125 20.2088 4.70363 20.2088C4.85705 20.2088 5.31523 20.667 5.56988 20.7171C5.82454 20.7693 5.82454 21.2786 5.82454 21.2786L5.56988 21.9904L5.36532 22.7533L5.56988 23.3639C5.56988 23.3639 5.26304 23.6196 5.06161 23.6196C4.87375 23.6196 4.81008 23.7386 4.60448 23.6822C2.66323 21.8693 1.25531 19.4981 0.644757 16.819Z" fill="white"/>
</svg>
