<svg width="21" height="30" viewBox="0 0 21 30" fill="none" xmlns="http://www.w3.org/2000/svg">
<path d="M10.5 29.2426C10.4769 29.2158 10.4527 29.1879 10.4276 29.1588C10.1433 28.8288 9.73635 28.3477 9.24761 27.7455C8.26967 26.5405 6.96658 24.8534 5.66448 22.9235C4.36142 20.9922 3.06553 18.8268 2.09693 16.6647C1.12539 14.4961 0.5 12.3676 0.5 10.5C0.5 4.97114 4.97114 0.5 10.5 0.5C16.0289 0.5 20.5 4.97114 20.5 10.5C20.5 12.3676 19.8746 14.4961 18.9031 16.6647C17.9345 18.8268 16.6386 20.9922 15.3355 22.9235C14.0334 24.8534 12.7303 26.5405 11.7524 27.7455C11.2637 28.3477 10.8567 28.8288 10.5724 29.1588C10.5473 29.1879 10.5231 29.2158 10.5 29.2426ZM6.25 10.5C6.25 12.8461 8.15386 14.75 10.5 14.75C12.8461 14.75 14.75 12.8461 14.75 10.5C14.75 8.15386 12.8461 6.25 10.5 6.25C8.15386 6.25 6.25 8.15386 6.25 10.5Z" fill="#D12E2E" stroke="black"/>
</svg>
